# xmcd
#
# Track frame offsets: 
#        150
#        7091
#        23935
#        42195
#        44820
#        61372
#        78394
#        94908
#        95629
#        113133
#        123520
#        128419
#        129308
#        140929
#        159838
#        161804
#        177916
#        180805
#        190552
#        202033
#
# Disc length: 2911 seconds
#
# Revision: 0
# Processed by: cddbd v1.5.2PL0 Copyright (c) Steve Scherf et al.
# Submitted via: ExactAudioCopyFreeDBPlugin 1.0
#
DISCID=120b5d14
DTITLE=K.I.Z. - Das Rapdeutschlandkettensägenmassaker
DYEAR=2005
DGENRE=Rap
TTITLE0=Intro
TTITLE1=Das Rapdeutschlandkettensägenmassaker
TTITLE2=Hurensohn
TTITLE3=Der Flavour
TTITLE4=In der Nacht
TTITLE5=Alles Schlampen ausser Mutti
TTITLE6=Tanz
TTITLE7=Kurth
TTITLE8=Autofokus
TTITLE9=Karate
TTITLE10=Nagellackentfernerfotze
TTITLE11=Halbzeit
TTITLE12=Schweinehaxxxen
TTITLE13=Pferderücken
TTITLE14=Das Game
TTITLE15=Schlafmittel
TTITLE16=Ich nehm Alles
TTITLE17=Tekknohurensohn
TTITLE18=Outro
TTITLE19=Raus aus der Stadt (Bonustrack)
EXTD=
EXTT0=
EXTT1=
EXTT2=
EXTT3=
EXTT4=
EXTT5=
EXTT6=
EXTT7=
EXTT8=
EXTT9=
EXTT10=
EXTT11=
EXTT12=
EXTT13=
EXTT14=
EXTT15=
EXTT16=
EXTT17=
EXTT18=
EXTT19=
PLAYORDER=
